<mxfile host="app.diagrams.net" modified="2020-11-16T11:57:31.061Z" agent="5.0 (Windows NT 10.0; Win64; x64) AppleWebKit/537.36 (KHTML, like Gecko) Chrome/86.0.4240.198 Safari/537.36" etag="OpxczkytonHq8S7gYAJy" version="13.9.9" type="github">
  <diagram id="yDT6zYbupYHxxWWFTKYv" name="Page-1">
    <mxGraphModel dx="782" dy="649" grid="1" gridSize="10" guides="1" tooltips="1" connect="1" arrows="1" fold="1" page="1" pageScale="1" pageWidth="827" pageHeight="1169" math="0" shadow="0">
      <root>
        <mxCell id="0" />
        <mxCell id="1" parent="0" />
        <mxCell id="V1P1zYZpyqZhVZjL2S4_-1" value="&lt;font style=&quot;vertical-align: inherit&quot;&gt;&lt;font style=&quot;vertical-align: inherit&quot;&gt;&lt;font style=&quot;vertical-align: inherit&quot;&gt;&lt;font style=&quot;vertical-align: inherit&quot;&gt;&lt;font style=&quot;vertical-align: inherit&quot;&gt;&lt;font style=&quot;vertical-align: inherit&quot;&gt;&lt;font style=&quot;vertical-align: inherit&quot;&gt;&lt;font style=&quot;vertical-align: inherit&quot;&gt;&lt;font style=&quot;vertical-align: inherit&quot;&gt;&lt;font style=&quot;vertical-align: inherit&quot;&gt;&lt;font style=&quot;vertical-align: inherit&quot;&gt;&lt;font style=&quot;vertical-align: inherit&quot;&gt;Sistema de Vendas - Diagrama de caso de uso PizzaNet&lt;/font&gt;&lt;/font&gt;&lt;/font&gt;&lt;/font&gt;&lt;/font&gt;&lt;/font&gt;&lt;/font&gt;&lt;/font&gt;&lt;/font&gt;&lt;/font&gt;&lt;/font&gt;&lt;/font&gt;" style="shape=umlFrame;whiteSpace=wrap;html=1;width=330;height=20;strokeColor=#000000;" vertex="1" parent="1">
          <mxGeometry x="30" y="70" width="720" height="570" as="geometry" />
        </mxCell>
        <mxCell id="V1P1zYZpyqZhVZjL2S4_-2" value="" style="rounded=0;whiteSpace=wrap;html=1;fillColor=none;" vertex="1" parent="1">
          <mxGeometry x="125" y="130" width="560" height="490" as="geometry" />
        </mxCell>
        <mxCell id="V1P1zYZpyqZhVZjL2S4_-3" style="edgeStyle=none;rounded=0;orthogonalLoop=1;jettySize=auto;html=1;exitX=0;exitY=0;exitDx=0;exitDy=0;endArrow=none;endFill=0;" edge="1" parent="1">
          <mxGeometry relative="1" as="geometry">
            <mxPoint x="564.6399999999999" y="484" as="sourcePoint" />
            <mxPoint x="564.6399999999999" y="484" as="targetPoint" />
          </mxGeometry>
        </mxCell>
        <mxCell id="V1P1zYZpyqZhVZjL2S4_-4" style="edgeStyle=none;rounded=0;orthogonalLoop=1;jettySize=auto;html=1;entryX=0;entryY=0.5;entryDx=0;entryDy=0;endArrow=none;endFill=0;" edge="1" parent="1" source="V1P1zYZpyqZhVZjL2S4_-12" target="V1P1zYZpyqZhVZjL2S4_-17">
          <mxGeometry relative="1" as="geometry" />
        </mxCell>
        <mxCell id="V1P1zYZpyqZhVZjL2S4_-5" style="edgeStyle=none;rounded=0;orthogonalLoop=1;jettySize=auto;html=1;entryX=0;entryY=0.5;entryDx=0;entryDy=0;endArrow=none;endFill=0;" edge="1" parent="1" source="V1P1zYZpyqZhVZjL2S4_-12" target="V1P1zYZpyqZhVZjL2S4_-14">
          <mxGeometry relative="1" as="geometry" />
        </mxCell>
        <mxCell id="V1P1zYZpyqZhVZjL2S4_-6" style="edgeStyle=none;rounded=0;orthogonalLoop=1;jettySize=auto;html=1;entryX=0.027;entryY=0.36;entryDx=0;entryDy=0;entryPerimeter=0;endArrow=none;endFill=0;" edge="1" parent="1" source="V1P1zYZpyqZhVZjL2S4_-12" target="V1P1zYZpyqZhVZjL2S4_-18">
          <mxGeometry relative="1" as="geometry" />
        </mxCell>
        <mxCell id="V1P1zYZpyqZhVZjL2S4_-7" style="edgeStyle=none;rounded=0;orthogonalLoop=1;jettySize=auto;html=1;entryX=0;entryY=0.5;entryDx=0;entryDy=0;endArrow=none;endFill=0;" edge="1" parent="1" source="V1P1zYZpyqZhVZjL2S4_-12" target="V1P1zYZpyqZhVZjL2S4_-20">
          <mxGeometry relative="1" as="geometry" />
        </mxCell>
        <mxCell id="V1P1zYZpyqZhVZjL2S4_-8" style="edgeStyle=none;rounded=0;orthogonalLoop=1;jettySize=auto;html=1;entryX=0;entryY=0.5;entryDx=0;entryDy=0;endArrow=none;endFill=0;" edge="1" parent="1" source="V1P1zYZpyqZhVZjL2S4_-12" target="V1P1zYZpyqZhVZjL2S4_-15">
          <mxGeometry relative="1" as="geometry" />
        </mxCell>
        <mxCell id="V1P1zYZpyqZhVZjL2S4_-9" style="edgeStyle=none;rounded=0;orthogonalLoop=1;jettySize=auto;html=1;entryX=0.373;entryY=0;entryDx=0;entryDy=0;entryPerimeter=0;endArrow=none;endFill=0;" edge="1" parent="1" source="V1P1zYZpyqZhVZjL2S4_-12" target="V1P1zYZpyqZhVZjL2S4_-19">
          <mxGeometry relative="1" as="geometry" />
        </mxCell>
        <mxCell id="V1P1zYZpyqZhVZjL2S4_-10" style="edgeStyle=none;rounded=0;orthogonalLoop=1;jettySize=auto;html=1;entryX=0.5;entryY=0;entryDx=0;entryDy=0;endArrow=none;endFill=0;" edge="1" parent="1" source="V1P1zYZpyqZhVZjL2S4_-12" target="V1P1zYZpyqZhVZjL2S4_-16">
          <mxGeometry relative="1" as="geometry" />
        </mxCell>
        <mxCell id="V1P1zYZpyqZhVZjL2S4_-11" style="edgeStyle=none;rounded=0;orthogonalLoop=1;jettySize=auto;html=1;entryX=0;entryY=1;entryDx=0;entryDy=0;endArrow=none;endFill=0;" edge="1" parent="1" source="V1P1zYZpyqZhVZjL2S4_-12" target="V1P1zYZpyqZhVZjL2S4_-13">
          <mxGeometry relative="1" as="geometry" />
        </mxCell>
        <mxCell id="V1P1zYZpyqZhVZjL2S4_-12" value="&lt;font style=&quot;vertical-align: inherit&quot;&gt;&lt;font style=&quot;vertical-align: inherit&quot;&gt;Cliente&lt;/font&gt;&lt;/font&gt;" style="shape=umlActor;verticalLabelPosition=bottom;verticalAlign=top;html=1;" vertex="1" parent="1">
          <mxGeometry x="70" y="330" width="30" height="60" as="geometry" />
        </mxCell>
        <mxCell id="V1P1zYZpyqZhVZjL2S4_-13" value="&lt;font style=&quot;vertical-align: inherit&quot;&gt;&lt;font style=&quot;vertical-align: inherit&quot;&gt;&lt;font style=&quot;vertical-align: inherit&quot;&gt;&lt;font style=&quot;vertical-align: inherit&quot;&gt;Logar&lt;/font&gt;&lt;/font&gt;&lt;/font&gt;&lt;/font&gt;" style="ellipse;whiteSpace=wrap;html=1;" vertex="1" parent="1">
          <mxGeometry x="203" y="170" width="110" height="50" as="geometry" />
        </mxCell>
        <mxCell id="V1P1zYZpyqZhVZjL2S4_-14" value="&lt;font style=&quot;vertical-align: inherit&quot;&gt;&lt;font style=&quot;vertical-align: inherit&quot;&gt;&lt;font style=&quot;vertical-align: inherit&quot;&gt;&lt;font style=&quot;vertical-align: inherit&quot;&gt;&lt;font style=&quot;vertical-align: inherit&quot;&gt;&lt;font style=&quot;vertical-align: inherit&quot;&gt;Escolher Bebidas&lt;/font&gt;&lt;/font&gt;&lt;/font&gt;&lt;/font&gt;&lt;/font&gt;&lt;/font&gt;" style="ellipse;whiteSpace=wrap;html=1;" vertex="1" parent="1">
          <mxGeometry x="290" y="260" width="110" height="50" as="geometry" />
        </mxCell>
        <mxCell id="V1P1zYZpyqZhVZjL2S4_-15" value="&lt;font style=&quot;vertical-align: inherit&quot;&gt;&lt;font style=&quot;vertical-align: inherit&quot;&gt;&lt;font style=&quot;vertical-align: inherit&quot;&gt;&lt;font style=&quot;vertical-align: inherit&quot;&gt;&lt;font style=&quot;vertical-align: inherit&quot;&gt;&lt;font style=&quot;vertical-align: inherit&quot;&gt;&lt;font style=&quot;vertical-align: inherit&quot;&gt;&lt;font style=&quot;vertical-align: inherit&quot;&gt;Visualizar Pedidos Anteriores&lt;/font&gt;&lt;/font&gt;&lt;/font&gt;&lt;/font&gt;&lt;/font&gt;&lt;/font&gt;&lt;/font&gt;&lt;/font&gt;" style="ellipse;whiteSpace=wrap;html=1;" vertex="1" parent="1">
          <mxGeometry x="304" y="420" width="110" height="50" as="geometry" />
        </mxCell>
        <mxCell id="V1P1zYZpyqZhVZjL2S4_-16" value="&lt;font style=&quot;vertical-align: inherit&quot;&gt;&lt;font style=&quot;vertical-align: inherit&quot;&gt;&lt;font style=&quot;vertical-align: inherit&quot;&gt;&lt;font style=&quot;vertical-align: inherit&quot;&gt;&lt;font style=&quot;vertical-align: inherit&quot;&gt;&lt;font style=&quot;vertical-align: inherit&quot;&gt;&lt;font style=&quot;vertical-align: inherit&quot;&gt;&lt;font style=&quot;vertical-align: inherit&quot;&gt;Opinar&lt;/font&gt;&lt;/font&gt;&lt;/font&gt;&lt;/font&gt;&lt;/font&gt;&lt;/font&gt;&lt;/font&gt;&lt;/font&gt;" style="ellipse;whiteSpace=wrap;html=1;" vertex="1" parent="1">
          <mxGeometry x="180" y="550" width="110" height="50" as="geometry" />
        </mxCell>
        <mxCell id="V1P1zYZpyqZhVZjL2S4_-17" value="&lt;font style=&quot;vertical-align: inherit&quot;&gt;&lt;font style=&quot;vertical-align: inherit&quot;&gt;&lt;font style=&quot;vertical-align: inherit&quot;&gt;&lt;font style=&quot;vertical-align: inherit&quot;&gt;Escolher Pizza&lt;/font&gt;&lt;/font&gt;&lt;/font&gt;&lt;/font&gt;" style="ellipse;whiteSpace=wrap;html=1;" vertex="1" parent="1">
          <mxGeometry x="370" y="190" width="110" height="50" as="geometry" />
        </mxCell>
        <mxCell id="V1P1zYZpyqZhVZjL2S4_-18" value="&lt;font style=&quot;vertical-align: inherit&quot;&gt;&lt;font style=&quot;vertical-align: inherit&quot;&gt;&lt;font style=&quot;vertical-align: inherit&quot;&gt;&lt;font style=&quot;vertical-align: inherit&quot;&gt;&lt;font style=&quot;vertical-align: inherit&quot;&gt;&lt;font style=&quot;vertical-align: inherit&quot;&gt;Fazer Pedido&lt;/font&gt;&lt;/font&gt;&lt;/font&gt;&lt;/font&gt;&lt;/font&gt;&lt;/font&gt;" style="ellipse;whiteSpace=wrap;html=1;" vertex="1" parent="1">
          <mxGeometry x="480" y="320" width="110" height="50" as="geometry" />
        </mxCell>
        <mxCell id="V1P1zYZpyqZhVZjL2S4_-19" value="&lt;font style=&quot;vertical-align: inherit&quot;&gt;&lt;font style=&quot;vertical-align: inherit&quot;&gt;&lt;font style=&quot;vertical-align: inherit&quot;&gt;&lt;font style=&quot;vertical-align: inherit&quot;&gt;Concluir Pedido&lt;/font&gt;&lt;/font&gt;&lt;/font&gt;&lt;/font&gt;" style="ellipse;whiteSpace=wrap;html=1;" vertex="1" parent="1">
          <mxGeometry x="240" y="490" width="110" height="50" as="geometry" />
        </mxCell>
        <mxCell id="V1P1zYZpyqZhVZjL2S4_-20" value="&lt;font style=&quot;vertical-align: inherit&quot;&gt;&lt;font style=&quot;vertical-align: inherit&quot;&gt;&lt;font style=&quot;vertical-align: inherit&quot;&gt;&lt;font style=&quot;vertical-align: inherit&quot;&gt;&lt;font style=&quot;vertical-align: inherit&quot;&gt;&lt;font style=&quot;vertical-align: inherit&quot;&gt;Visualizar os mais pedidos&lt;/font&gt;&lt;/font&gt;&lt;/font&gt;&lt;/font&gt;&lt;/font&gt;&lt;/font&gt;" style="ellipse;whiteSpace=wrap;html=1;" vertex="1" parent="1">
          <mxGeometry x="313" y="350" width="110" height="50" as="geometry" />
        </mxCell>
        <mxCell id="V1P1zYZpyqZhVZjL2S4_-21" value="&lt;font style=&quot;vertical-align: inherit&quot;&gt;&lt;font style=&quot;vertical-align: inherit&quot;&gt;&lt;font style=&quot;vertical-align: inherit&quot;&gt;&lt;font style=&quot;vertical-align: inherit&quot;&gt;Armazenar dados do Cliente&lt;/font&gt;&lt;/font&gt;&lt;/font&gt;&lt;/font&gt;" style="ellipse;whiteSpace=wrap;html=1;" vertex="1" parent="1">
          <mxGeometry x="530" y="420" width="110" height="50" as="geometry" />
        </mxCell>
        <mxCell id="V1P1zYZpyqZhVZjL2S4_-22" value="Extends" style="endArrow=block;endSize=16;endFill=0;html=1;dashed=1;exitX=0.5;exitY=1;exitDx=0;exitDy=0;" edge="1" parent="1" source="V1P1zYZpyqZhVZjL2S4_-18" target="V1P1zYZpyqZhVZjL2S4_-21">
          <mxGeometry width="160" relative="1" as="geometry">
            <mxPoint x="440" y="340" as="sourcePoint" />
            <mxPoint x="530" y="345" as="targetPoint" />
          </mxGeometry>
        </mxCell>
        <mxCell id="V1P1zYZpyqZhVZjL2S4_-23" value="Extends" style="endArrow=block;endSize=16;endFill=0;html=1;dashed=1;exitX=0;exitY=0.5;exitDx=0;exitDy=0;entryX=1;entryY=0.5;entryDx=0;entryDy=0;" edge="1" parent="1" source="V1P1zYZpyqZhVZjL2S4_-21" target="V1P1zYZpyqZhVZjL2S4_-15">
          <mxGeometry width="160" relative="1" as="geometry">
            <mxPoint x="290" y="390" as="sourcePoint" />
            <mxPoint x="460" y="390" as="targetPoint" />
          </mxGeometry>
        </mxCell>
        <mxCell id="V1P1zYZpyqZhVZjL2S4_-24" value="include" style="endArrow=open;endSize=12;dashed=1;html=1;exitX=1;exitY=0.5;exitDx=0;exitDy=0;" edge="1" parent="1" source="V1P1zYZpyqZhVZjL2S4_-19" target="V1P1zYZpyqZhVZjL2S4_-21">
          <mxGeometry width="160" relative="1" as="geometry">
            <mxPoint x="290" y="390" as="sourcePoint" />
            <mxPoint x="450" y="390" as="targetPoint" />
          </mxGeometry>
        </mxCell>
        <mxCell id="V1P1zYZpyqZhVZjL2S4_-25" value="include" style="endArrow=open;endSize=12;dashed=1;html=1;entryX=1;entryY=0;entryDx=0;entryDy=0;exitX=0.655;exitY=1.08;exitDx=0;exitDy=0;exitPerimeter=0;" edge="1" parent="1" source="V1P1zYZpyqZhVZjL2S4_-17" target="V1P1zYZpyqZhVZjL2S4_-20">
          <mxGeometry x="0.1917" y="4" width="160" relative="1" as="geometry">
            <mxPoint x="473" y="200" as="sourcePoint" />
            <mxPoint x="656.8507565692486" y="109.99569737230058" as="targetPoint" />
            <mxPoint as="offset" />
          </mxGeometry>
        </mxCell>
        <mxCell id="V1P1zYZpyqZhVZjL2S4_-26" value="include" style="endArrow=open;endSize=12;dashed=1;html=1;exitX=0;exitY=1;exitDx=0;exitDy=0;entryX=1;entryY=0.5;entryDx=0;entryDy=0;" edge="1" parent="1" source="V1P1zYZpyqZhVZjL2S4_-18" target="V1P1zYZpyqZhVZjL2S4_-20">
          <mxGeometry width="160" relative="1" as="geometry">
            <mxPoint x="360" y="515" as="sourcePoint" />
            <mxPoint x="440" y="375" as="targetPoint" />
          </mxGeometry>
        </mxCell>
        <mxCell id="V1P1zYZpyqZhVZjL2S4_-27" value="include" style="endArrow=open;endSize=12;dashed=1;html=1;entryX=1;entryY=0;entryDx=0;entryDy=0;" edge="1" parent="1" source="V1P1zYZpyqZhVZjL2S4_-18">
          <mxGeometry width="160" relative="1" as="geometry">
            <mxPoint x="533.0100000000002" y="371" as="sourcePoint" />
            <mxPoint x="407.8908729652603" y="437.32233047033606" as="targetPoint" />
          </mxGeometry>
        </mxCell>
        <mxCell id="V1P1zYZpyqZhVZjL2S4_-28" value="&lt;font style=&quot;vertical-align: inherit&quot;&gt;&lt;font style=&quot;vertical-align: inherit&quot;&gt;&lt;font style=&quot;vertical-align: inherit&quot;&gt;&lt;font style=&quot;vertical-align: inherit&quot;&gt;Sair&lt;/font&gt;&lt;/font&gt;&lt;/font&gt;&lt;/font&gt;" style="ellipse;whiteSpace=wrap;html=1;" vertex="1" parent="1">
          <mxGeometry x="390" y="560" width="110" height="50" as="geometry" />
        </mxCell>
        <mxCell id="V1P1zYZpyqZhVZjL2S4_-29" value="Extends" style="endArrow=block;endSize=16;endFill=0;html=1;dashed=1;entryX=0.8;entryY=0.9;entryDx=0;entryDy=0;entryPerimeter=0;" edge="1" parent="1" source="V1P1zYZpyqZhVZjL2S4_-28" target="V1P1zYZpyqZhVZjL2S4_-19">
          <mxGeometry width="160" relative="1" as="geometry">
            <mxPoint x="290" y="390" as="sourcePoint" />
            <mxPoint x="450" y="390" as="targetPoint" />
          </mxGeometry>
        </mxCell>
        <mxCell id="V1P1zYZpyqZhVZjL2S4_-30" value="Extends" style="endArrow=block;endSize=16;endFill=0;html=1;dashed=1;entryX=1;entryY=1;entryDx=0;entryDy=0;" edge="1" parent="1" target="V1P1zYZpyqZhVZjL2S4_-17">
          <mxGeometry width="160" relative="1" as="geometry">
            <mxPoint x="530.0000000000005" y="310" as="sourcePoint" />
            <mxPoint x="580.7931877007431" y="430.8484190912636" as="targetPoint" />
          </mxGeometry>
        </mxCell>
        <mxCell id="V1P1zYZpyqZhVZjL2S4_-35" value="Extends" style="endArrow=block;endSize=16;endFill=0;html=1;dashed=1;edgeStyle=orthogonalEdgeStyle;exitX=1;exitY=0;exitDx=0;exitDy=0;" edge="1" parent="1" source="V1P1zYZpyqZhVZjL2S4_-21" target="V1P1zYZpyqZhVZjL2S4_-13">
          <mxGeometry width="160" relative="1" as="geometry">
            <mxPoint x="290" y="350" as="sourcePoint" />
            <mxPoint x="450" y="350" as="targetPoint" />
            <Array as="points">
              <mxPoint x="624" y="150" />
              <mxPoint x="258" y="150" />
            </Array>
          </mxGeometry>
        </mxCell>
      </root>
    </mxGraphModel>
  </diagram>
</mxfile>
